<?xml version="1.0" encoding="UTF-8"?>
<svg width="379.38" height="201.34" version="1" xmlns="http://www.w3.org/2000/svg" xmlns:cc="http://creativecommons.org/ns#" xmlns:dc="http://purl.org/dc/elements/1.1/" xmlns:rdf="http://www.w3.org/1999/02/22-rdf-syntax-ns#">
  <g transform="matrix(1.25 0 0 -1.25 -6.9451 211.24)">
    <path transform="matrix(1,0,0,-1,77.28,34.8)" d="m1.8281 0v-17.18h2.332l9.0234 13.488v-13.488h2.1797v17.18h-2.3321l-9.0234-13.5v13.5z"/>
    <path d="m79.202 15.52v17.18h2.2734v-7.0547h8.9297v7.0547h2.2734v-17.18h-2.2734v8.0977h-8.9297v-8.0977z"/>
    <path transform="matrix(1,0,0,-1,222.48,103.92)" d="m1.8281 0v-17.18h2.332l9.0234 13.488v-13.488h2.1797v17.18h-2.3321l-9.0234-13.5v13.5z"/>
    <path transform="matrix(1,0,0,-1,256.8,84.48)" d="m14.109-6.0234 2.2734 0.57422c-0.4766 1.8672-1.334 3.291-2.5723 4.2715-1.2382 0.98046-2.7519 1.4707-4.541 1.4707-1.8516-1e-6 -3.3574-0.37695-4.5176-1.1309-1.1602-0.75391-2.043-1.8457-2.6484-3.2754-0.60547-1.4297-0.90821-2.9648-0.90821-4.6055 0-1.789 0.3418-3.3496 1.0254-4.6816 0.68359-1.332 1.6562-2.3437 2.918-3.0351 1.2617-0.6914 2.6504-1.0371 4.166-1.0372 1.7187 1e-4 3.164 0.4376 4.3359 1.3125 1.1719 0.8751 1.9883 2.1055 2.4492 3.6915l-2.2382 0.5273c-0.3985-1.25-0.9766-2.1601-1.7344-2.7305-0.7578-0.5703-1.711-0.8554-2.8594-0.8554-1.3203 0-2.4238 0.3164-3.3105 0.9492-0.88673 0.6328-1.5098 1.4824-1.8692 2.5488-0.35937 1.0664-0.53906 2.166-0.53906 3.2988 0 1.461 0.21289 2.7363 0.63867 3.8262 0.42578 1.0898 1.0879 1.9043 1.9863 2.4434 0.89843 0.53907 1.8711 0.8086 2.918 0.8086 1.2735 0 2.3516-0.36719 3.2344-1.1016 0.8828-0.73437 1.4805-1.8242 1.793-3.2695z"/>
    <path transform="matrix(1,0,0,-1,274.08,84.48)" d="m1.9219 0v-17.18h2.2734v7.0547h8.9297v-7.0547h2.2734v17.18h-2.2734v-8.0977h-8.9297v8.0977z"/>
    <path transform="matrix(1,0,0,-1,291.36,77.76)" d="m0.79785-3.5903 1.6699-0.22266c0.19173 0.94629 0.51799 1.6282 0.97876 2.0457s1.022 0.62622 1.6838 0.62622c0.78548 0 1.4488-0.27214 1.99-0.81641 0.54117-0.54427 0.81176-1.2184 0.81177-2.0225-1e-5 -0.76692-0.2505-1.3993-0.75147-1.8972-0.50098-0.49787-1.138-0.74682-1.9111-0.74682-0.31543 0-0.70817 0.06185-1.1782 0.18554l0.18555-1.4658c0.11132 0.01238 0.201 0.01857 0.26904 0.01856 0.71126 1e-5 1.3514-0.18554 1.9204-0.55664 0.569-0.37109 0.85351-0.94319 0.85351-1.7163 0-0.6123-0.2072-1.1194-0.62158-1.5215-0.41439-0.402-0.94939-0.603-1.605-0.603-0.64942 0-1.1906 0.2041-1.6235 0.6123-0.43295 0.4082-0.71127 1.0205-0.83496 1.8369l-1.6699-0.29692c0.2041-1.1194 0.66797-1.9868 1.3916-2.6023 0.72362-0.6153 1.6235-0.923 2.6997-0.923 0.74218 0 1.4256 0.1592 2.0503 0.4777 0.62466 0.3186 1.1024 0.7531 1.4333 1.3035 0.33089 0.5505 0.49633 1.1349 0.49634 1.7534-1e-5 0.58759-0.15772 1.1226-0.47314 1.605-0.31544 0.48243-0.7824 0.86589-1.4009 1.1504 0.80403 0.18555 1.4287 0.57056 1.874 1.155 0.44531 0.58448 0.66796 1.3158 0.66797 2.1941-1e-5 1.1875-0.43295 2.1941-1.2988 3.0198-0.86589 0.82568-1.9606 1.2385-3.2842 1.2385-1.1937 0-2.1848-0.35563-2.9734-1.0669-0.78858-0.71127-1.2385-1.6328-1.3499-2.7646z"/>
    <path transform="matrix(1,0,0,-1,222,143.52)" d="m14.109-6.0234 2.2734 0.57422c-0.4766 1.8672-1.334 3.291-2.5723 4.2715-1.2382 0.98046-2.7519 1.4707-4.541 1.4707-1.8516-1e-6 -3.3574-0.37695-4.5176-1.1309-1.1602-0.75391-2.043-1.8457-2.6484-3.2754-0.60547-1.4297-0.90821-2.9648-0.90821-4.6055 0-1.789 0.3418-3.3496 1.0254-4.6816 0.68359-1.332 1.6562-2.3437 2.918-3.0351 1.2617-0.6914 2.6504-1.0371 4.166-1.0372 1.7187 1e-4 3.164 0.4376 4.3359 1.3125 1.1719 0.8751 1.9883 2.1055 2.4492 3.6915l-2.2382 0.5273c-0.3985-1.25-0.9766-2.1601-1.7344-2.7305-0.7578-0.5703-1.711-0.8554-2.8594-0.8554-1.3203 0-2.4238 0.3164-3.3105 0.9492-0.88673 0.6328-1.5098 1.4824-1.8692 2.5488-0.35937 1.0664-0.53906 2.166-0.53906 3.2988 0 1.461 0.21289 2.7363 0.63867 3.8262 0.42578 1.0898 1.0879 1.9043 1.9863 2.4434 0.89843 0.53907 1.8711 0.8086 2.918 0.8086 1.2735 0 2.3516-0.36719 3.2344-1.1016 0.8828-0.73437 1.4805-1.8242 1.793-3.2695z"/>
    <path transform="matrix(1,0,0,-1,239.28,143.52)" d="m1.9219 0v-17.18h2.2734v7.0547h8.9297v-7.0547h2.2734v17.18h-2.2734v-8.0977h-8.9297v8.0977z"/>
    <path transform="matrix(1,0,0,-1,256.56,136.8)" d="m0.79785-3.5903 1.6699-0.22266c0.19173 0.94629 0.51799 1.6282 0.97876 2.0457s1.022 0.62622 1.6838 0.62622c0.78548 0 1.4488-0.27214 1.99-0.81641 0.54117-0.54427 0.81176-1.2184 0.81177-2.0225-1e-5 -0.76692-0.2505-1.3993-0.75147-1.8972-0.50098-0.49787-1.138-0.74682-1.9111-0.74682-0.31543 0-0.70817 0.06185-1.1782 0.18554l0.18555-1.4658c0.11132 0.01238 0.201 0.01857 0.26904 0.01856 0.71126 1e-5 1.3514-0.18554 1.9204-0.55664 0.569-0.37109 0.85351-0.94319 0.85351-1.7163 0-0.6123-0.2072-1.1194-0.62158-1.5215-0.41439-0.402-0.94939-0.603-1.605-0.603-0.64942 0-1.1906 0.2041-1.6235 0.6123-0.43295 0.4082-0.71127 1.0205-0.83496 1.8369l-1.6699-0.29692c0.2041-1.1194 0.66797-1.9868 1.3916-2.6023 0.72362-0.6153 1.6235-0.923 2.6997-0.923 0.74218 0 1.4256 0.1592 2.0503 0.4777 0.62466 0.3186 1.1024 0.7531 1.4333 1.3035 0.33089 0.5505 0.49633 1.1349 0.49634 1.7534-1e-5 0.58759-0.15772 1.1226-0.47314 1.605-0.31544 0.48243-0.7824 0.86589-1.4009 1.1504 0.80403 0.18555 1.4287 0.57056 1.874 1.155 0.44531 0.58448 0.66796 1.3158 0.66797 2.1941-1e-5 1.1875-0.43295 2.1941-1.2988 3.0198-0.86589 0.82568-1.9606 1.2385-3.2842 1.2385-1.1937 0-2.1848-0.35563-2.9734-1.0669-0.78858-0.71127-1.2385-1.6328-1.3499-2.7646z"/>
    <g fill="none" stroke="#000" stroke-linecap="round" stroke-miterlimit="10">
      <path d="M79.44 145.68l12.72-37.44M74.16 140.4l10.56-31.2M27.12 86.4L66 78.48M31.68 92.16l32.4-6.48" stroke-width="1.44"/>
      <path d="M40.56 153.6l38.88-7.92M14.4 123.84l12.72-37.44" stroke-width="1.68"/>
      <path d="M14.4 123.84l26.16 29.76M21.84 121.92l21.6 24.72" stroke-width="1.44"/>
      <path d="M128.4 92.4l-36.24 15.84M66 78.48l26.16 29.76" stroke-width="1.68"/>
      <path d="M124.8 53.04l3.6 39.36M118.56 58.8l2.64 29.28" stroke-width="1.44"/>
      <path d="M78.96 56.64L66 78.48M97.2 46.8l27.6 6.24M128.4 92.4l34.08 20.16M162.48 112.56l34.56-19.44M197.04 93.12l22.8 13.44M242.4 107.04l11.76-6.72M231.12 125.76l-.24 15.12" stroke-width="1.68"/>
    </g>
  </g>
</svg>